<?xml version="1.0" encoding="utf-8"?>
<!-- Generator: Adobe Illustrator 15.1.0, SVG Export Plug-In . SVG Version: 6.00 Build 0)  -->
<!DOCTYPE svg PUBLIC "-//W3C//DTD SVG 1.1//EN" "http://www.w3.org/Graphics/SVG/1.1/DTD/svg11.dtd">
<svg version="1.1" id="Layer_1" xmlns="http://www.w3.org/2000/svg" xmlns:xlink="http://www.w3.org/1999/xlink" x="0px" y="0px"
	 width="170px" height="59px" viewBox="-31.141 0 170 59" enable-background="new -31.141 0 170 59" xml:space="preserve">
<rect display="none" fill="#C7B299" width="612" height="275"/>
<g>
	<g opacity="0.25">
		<path d="M-3.896,14.512v1.087l-8.669-0.007c-0.041-3.385-0.712-7.273-4.953-7.273c-4.393,0-4.953,4.151-4.953,7.619v3.87h5.698
			v7.304h-5.698v23.092h-8.669V14.511c0-8.857,4.584-13.498,13.62-13.498C-8.475,1.014-3.896,5.656-3.896,14.512z M52.141,35.283
			c0,3.467-0.557,7.619-4.957,7.619c-4.395,0-4.955-4.152-4.955-7.619V18.81h-8.669v17.897c0,8.852,4.582,13.494,13.621,13.494
			c9.047,0,13.626-4.643,13.626-13.494V18.81h-8.668v16.473H52.141z M-12.565,50.205h8.669V19.809h-8.669V50.205z M21.549,18.81
			h8.319V43.27c0,4.16-0.306,6.816-1.659,9.172c-2.154,3.502-7.212,6.561-14.083,6.561c-9.667,0-13.329-5.811-13.877-9.768h9.62
			c0.604,1.35,1.708,2.051,2.658,2.402c1.002,0.352,1.955,0.352,2.201,0.352c3.156,0,6.771-1.957,6.771-6.768v-1.652
			c-0.956,1.605-3.359,3.959-7.718,3.959c-7.569,0-14.034-5.715-14.034-14.635c0-9.521,6.818-14.984,14.034-14.984
			c3.106,0,6.165,1.103,7.771,3.512V18.81L21.549,18.81z M21.549,33.043c0-2.053-0.608-3.906-1.761-5.215
			c-1.097-1.352-2.8-2.15-5.009-2.15c-3.559,0-6.713,2.859-6.713,6.914v0.053c0,4.41,3.207,7.115,6.657,7.115
			c2.06,0,3.66-0.701,4.866-1.902C20.741,36.654,21.444,35,21.549,33.043z M114.982,34.266c0,8.805-7.136,15.939-15.942,15.939
			c-8.803,0-15.943-7.135-15.943-15.939c0-8.807,7.14-15.943,15.943-15.943C107.847,18.322,114.982,25.463,114.982,34.266z
			 M109.38,38.553l-2.97-4.287l2.97-4.285l-5.128-0.926l-0.93-5.129l-4.283,2.971l-4.282-2.971l-0.925,5.129l-5.128,0.926
			l2.965,4.285l-2.965,4.287l5.128,0.924l0.925,5.131l4.282-2.969l4.283,2.969l0.93-5.131L109.38,38.553z M73.379,22.236v-3.52
			h-8.856v31.512h9.426V33.312c0-4.434,2.273-6.193,7.096-6.193h0.338v-9.483C75.936,17.636,74.288,20.531,73.379,22.236z
			 M132.609,30.705c-3.098-1.365-6.257-1.99-6.257-4.215c0-1.486,1.43-2.598,2.852-2.598c1.732,0,3.344,0.926,4.579,2.104
			l3.718-5.013c-2.477-2.173-6.564-3.156-9.781-3.156c-5.697,0-9.663,4.145-9.663,9.841c0,4.895,3.037,6.688,6.072,7.986
			c3.032,1.301,6.067,1.922,6.067,4.584c0,1.979-1.548,3.281-3.469,3.281c-2.54,0-4.771-1.668-6.441-3.527l-3.962,5.137
			c2.663,3.223,6.624,5.076,10.712,5.076c6.38,0,11.823-4.021,11.823-10.77C138.859,34.168,135.768,32.064,132.609,30.705z"/>
	</g>
	<g>
		<path fill="#FFFFFF" d="M-3.896,13.499v1.087l-8.669-0.007c-0.041-3.385-0.712-7.273-4.953-7.273
			c-4.393,0-4.953,4.152-4.953,7.619v3.87h5.698v7.304h-5.698v23.094h-8.669V13.498C-31.141,4.643-26.556,0-17.521,0
			C-8.475,0-3.896,4.643-3.896,13.499z M52.141,34.27c0,3.467-0.557,7.619-4.957,7.619c-4.395,0-4.955-4.152-4.955-7.619V17.797
			h-8.669v17.896c0,8.852,4.582,13.496,13.621,13.496c9.047,0,13.626-4.645,13.626-13.496V17.797h-8.668V34.27H52.141z
			 M-12.565,49.191h8.669V18.795h-8.669V49.191z M21.549,17.797h8.319v24.458c0,4.16-0.306,6.816-1.659,9.172
			c-2.154,3.502-7.212,6.561-14.083,6.561c-9.667,0-13.329-5.811-13.877-9.768h9.62c0.604,1.352,1.708,2.051,2.658,2.402
			c1.002,0.352,1.955,0.352,2.201,0.352c3.156,0,6.771-1.957,6.771-6.768v-1.652c-0.956,1.605-3.359,3.961-7.718,3.961
			c-7.569,0-14.034-5.717-14.034-14.635c0-9.523,6.818-14.984,14.034-14.984c3.106,0,6.165,1.101,7.771,3.512V17.797L21.549,17.797z
			 M21.549,32.029c0-2.053-0.608-3.906-1.761-5.213c-1.097-1.354-2.8-2.15-5.009-2.15c-3.559,0-6.713,2.857-6.713,6.912v0.053
			c0,4.41,3.207,7.115,6.657,7.115c2.06,0,3.66-0.701,4.866-1.902C20.741,35.641,21.444,33.986,21.549,32.029z M114.982,33.252
			c0,8.805-7.136,15.939-15.942,15.939c-8.803,0-15.943-7.135-15.943-15.939c0-8.807,7.14-15.943,15.943-15.943
			C107.847,17.309,114.982,24.449,114.982,33.252z M109.38,37.539l-2.97-4.285l2.97-4.285l-5.128-0.928l-0.93-5.129l-4.283,2.973
			l-4.282-2.973l-0.925,5.129l-5.128,0.928l2.965,4.285l-2.965,4.285l5.128,0.924l0.925,5.131l4.282-2.969l4.283,2.969l0.93-5.131
			L109.38,37.539z M73.379,21.222v-3.52h-8.856v31.512h9.426V32.301c0-4.434,2.273-6.195,7.096-6.195h0.338v-9.482
			C75.936,16.623,74.288,19.52,73.379,21.222z M132.609,29.691c-3.098-1.365-6.257-1.99-6.257-4.215c0-1.486,1.43-2.598,2.852-2.598
			c1.732,0,3.344,0.926,4.579,2.102l3.718-5.013c-2.477-2.171-6.564-3.154-9.781-3.154c-5.697,0-9.663,4.144-9.663,9.841
			c0,4.893,3.037,6.688,6.072,7.986c3.032,1.301,6.067,1.922,6.067,4.584c0,1.979-1.548,3.281-3.469,3.281
			c-2.54,0-4.771-1.67-6.441-3.527l-3.962,5.137c2.663,3.221,6.624,5.076,10.712,5.076c6.38,0,11.823-4.021,11.823-10.77
			C138.859,33.154,135.768,31.051,132.609,29.691z"/>
	</g>
</g>
</svg>
