<?xml version="1.0" encoding="utf-8"?>
<!-- Generator: Adobe Illustrator 15.1.0, SVG Export Plug-In  -->
<!DOCTYPE svg PUBLIC "-//W3C//DTD SVG 1.1//EN" "http://www.w3.org/Graphics/SVG/1.1/DTD/svg11.dtd" [
	<!ENTITY ns_flows "http://ns.adobe.com/Flows/1.0/">
]>
<svg version="1.1"
	 xmlns="http://www.w3.org/2000/svg" xmlns:xlink="http://www.w3.org/1999/xlink" xmlns:a="http://ns.adobe.com/AdobeSVGViewerExtensions/3.0/"
	 x="0px" y="0px" width="120px" height="43px" viewBox="77.176 152.773 120 43"
	 overflow="visible" enable-background="new 77.176 152.773 120 43" xml:space="preserve">
<defs>
</defs>
<rect display="none" fill="#C7B299" width="612" height="275"/>
<g>
	<g opacity="0.25">
		<path d="M96.438,164.317v0.768l-6.13-0.005c-0.028-2.393-0.504-5.142-3.502-5.142c-3.106,0-3.501,2.935-3.501,5.386v2.737h4.028
			v5.163h-4.028v16.328h-6.129v-25.235c0-6.262,3.241-9.544,9.63-9.544C93.2,154.773,96.438,158.055,96.438,164.317z
			 M136.056,179.002c0,2.451-0.393,5.386-3.504,5.386c-3.106,0-3.502-2.935-3.502-5.386v-11.647h-6.129v12.655
			c0,6.258,3.24,9.541,9.631,9.541c6.396,0,9.633-3.283,9.633-9.541v-12.655h-6.128V179.002z M90.308,189.552h6.13v-21.491h-6.13
			V189.552z M114.427,167.355h5.881v17.293c0,2.941-0.215,4.82-1.172,6.485c-1.522,2.477-5.1,4.639-9.956,4.639
			c-6.836,0-9.425-4.11-9.813-6.907h6.802c0.426,0.956,1.206,1.451,1.879,1.7c0.709,0.247,1.382,0.247,1.555,0.247
			c2.233,0,4.787-1.382,4.787-4.785v-1.167c-0.675,1.135-2.375,2.799-5.457,2.799c-5.351,0-9.921-4.04-9.921-10.346
			c0-6.733,4.819-10.594,9.921-10.594c2.197,0,4.359,0.778,5.495,2.482V167.355z M114.427,177.418c0-1.451-0.429-2.761-1.246-3.685
			c-0.775-0.957-1.979-1.521-3.541-1.521c-2.515,0-4.746,2.02-4.746,4.888v0.037c0,3.117,2.268,5.03,4.708,5.03
			c1.456,0,2.587-0.496,3.44-1.346C113.855,179.971,114.354,178.802,114.427,177.418z M180.487,178.282
			c0,6.225-5.045,11.27-11.272,11.27c-6.223,0-11.271-5.045-11.271-11.27s5.047-11.272,11.271-11.272
			C175.442,167.01,180.487,172.058,180.487,178.282z M176.525,181.312l-2.099-3.029l2.099-3.029l-3.625-0.657l-0.658-3.625
			l-3.027,2.101l-3.028-2.101l-0.653,3.625l-3.626,0.657l2.096,3.029l-2.096,3.029l3.626,0.655l0.653,3.626l3.028-2.098l3.027,2.098
			l0.658-3.626L176.525,181.312z M151.072,169.777v-2.488h-6.262v22.279h6.664v-11.959c0-3.135,1.608-4.378,5.017-4.378h0.24v-6.705
			C152.88,166.525,151.715,168.573,151.072,169.777z M192.949,175.765c-2.19-0.965-4.423-1.405-4.423-2.98
			c0-1.051,1.01-1.836,2.016-1.836c1.226,0,2.364,0.655,3.238,1.486l2.628-3.545c-1.751-1.535-4.64-2.23-6.917-2.23
			c-4.027,0-6.831,2.93-6.831,6.958c0,3.459,2.146,4.727,4.292,5.645c2.145,0.92,4.291,1.36,4.291,3.242
			c0,1.399-1.095,2.32-2.452,2.32c-1.796,0-3.373-1.181-4.554-2.494l-2.802,3.632c1.884,2.278,4.684,3.589,7.574,3.589
			c4.51,0,8.359-2.843,8.359-7.614C197.368,178.213,195.182,176.727,192.949,175.765z"/>
	</g>
	<g>
		<path fill="#FFFFFF" d="M96.438,162.317v0.768l-6.13-0.005c-0.028-2.393-0.504-5.142-3.502-5.142
			c-3.106,0-3.501,2.935-3.501,5.386v2.737h4.028v5.163h-4.028v16.328h-6.129v-25.235c0-6.262,3.241-9.544,9.63-9.544
			C93.2,152.773,96.438,156.055,96.438,162.317z M136.056,177.002c0,2.451-0.393,5.386-3.504,5.386
			c-3.106,0-3.502-2.935-3.502-5.386v-11.647h-6.129v12.655c0,6.258,3.24,9.541,9.631,9.541c6.396,0,9.633-3.283,9.633-9.541
			v-12.655h-6.128V177.002z M90.308,187.552h6.13v-21.491h-6.13V187.552z M114.427,165.355h5.881v17.293
			c0,2.941-0.215,4.82-1.172,6.485c-1.522,2.477-5.1,4.639-9.956,4.639c-6.836,0-9.425-4.11-9.813-6.907h6.802
			c0.426,0.956,1.206,1.451,1.879,1.7c0.709,0.247,1.382,0.247,1.555,0.247c2.233,0,4.787-1.382,4.787-4.785v-1.167
			c-0.675,1.135-2.375,2.799-5.457,2.799c-5.351,0-9.921-4.04-9.921-10.346c0-6.733,4.819-10.594,9.921-10.594
			c2.197,0,4.359,0.778,5.495,2.482V165.355z M114.427,175.418c0-1.451-0.429-2.761-1.246-3.685
			c-0.775-0.957-1.979-1.521-3.541-1.521c-2.515,0-4.746,2.02-4.746,4.888v0.037c0,3.117,2.268,5.03,4.708,5.03
			c1.456,0,2.587-0.496,3.44-1.346C113.855,177.971,114.354,176.802,114.427,175.418z M180.487,176.282
			c0,6.225-5.045,11.27-11.272,11.27c-6.223,0-11.271-5.045-11.271-11.27s5.047-11.272,11.271-11.272
			C175.442,165.01,180.487,170.058,180.487,176.282z M176.525,179.312l-2.099-3.029l2.099-3.029l-3.625-0.657l-0.658-3.625
			l-3.027,2.101l-3.028-2.101l-0.653,3.625l-3.626,0.657l2.096,3.029l-2.096,3.029l3.626,0.655l0.653,3.626l3.028-2.098l3.027,2.098
			l0.658-3.626L176.525,179.312z M151.072,167.777v-2.488h-6.262v22.279h6.664v-11.959c0-3.135,1.608-4.378,5.017-4.378h0.24v-6.705
			C152.88,164.525,151.715,166.573,151.072,167.777z M192.949,173.765c-2.19-0.965-4.423-1.405-4.423-2.98
			c0-1.051,1.01-1.836,2.016-1.836c1.226,0,2.364,0.655,3.238,1.486l2.628-3.545c-1.751-1.535-4.64-2.23-6.917-2.23
			c-4.027,0-6.831,2.93-6.831,6.958c0,3.459,2.146,4.727,4.292,5.645c2.145,0.92,4.291,1.36,4.291,3.242
			c0,1.399-1.095,2.32-2.452,2.32c-1.796,0-3.373-1.181-4.554-2.494l-2.802,3.632c1.884,2.278,4.684,3.589,7.574,3.589
			c4.51,0,8.359-2.843,8.359-7.614C197.368,176.213,195.182,174.727,192.949,173.765z"/>
	</g>
</g>
</svg>
