<?xml version="1.0" encoding="utf-8"?>
<!-- Generator: Adobe Illustrator 15.1.0, SVG Export Plug-In  -->
<!DOCTYPE svg PUBLIC "-//W3C//DTD SVG 1.1//EN" "http://www.w3.org/Graphics/SVG/1.1/DTD/svg11.dtd" [
	<!ENTITY ns_flows "http://ns.adobe.com/Flows/1.0/">
]>
<svg version="1.1"
	 xmlns="http://www.w3.org/2000/svg" xmlns:xlink="http://www.w3.org/1999/xlink" xmlns:a="http://ns.adobe.com/AdobeSVGViewerExtensions/3.0/"
	 x="0px" y="0px" width="300px" height="150px" viewBox="299.399 98.273 300 150"
	 overflow="visible" enable-background="new 299.399 98.273 300 150" xml:space="preserve">
<defs>
</defs>
<rect display="none" fill="#C7B299" width="612" height="275"/>
<rect x="299.399" y="98.273" display="none" fill="none" stroke="#FF00FF" stroke-miterlimit="10" width="50" height="50"/>
<rect x="349.399" y="98.273" display="none" fill="none" stroke="#FF00FF" stroke-miterlimit="10" width="50" height="50"/>
<rect x="399.399" y="98.273" display="none" fill="none" stroke="#FF00FF" stroke-miterlimit="10" width="50" height="50"/>
<rect x="299.399" y="148.273" display="none" fill="none" stroke="#FF00FF" stroke-miterlimit="10" width="50" height="50"/>
<rect x="349.399" y="148.273" display="none" fill="none" stroke="#FF00FF" stroke-miterlimit="10" width="50" height="50"/>
<rect x="399.399" y="148.273" display="none" fill="none" stroke="#FF00FF" stroke-miterlimit="10" width="50" height="50"/>
<rect x="299.399" y="198.273" display="none" fill="none" stroke="#FF00FF" stroke-miterlimit="10" width="50" height="50"/>
<rect x="349.399" y="198.273" display="none" fill="none" stroke="#FF00FF" stroke-miterlimit="10" width="50" height="50"/>
<rect x="399.399" y="198.273" display="none" fill="none" stroke="#FF00FF" stroke-miterlimit="10" width="50" height="50"/>
<rect x="449.399" y="98.273" display="none" fill="none" stroke="#FF00FF" stroke-miterlimit="10" width="50" height="50"/>
<rect x="499.399" y="98.273" display="none" fill="none" stroke="#FF00FF" stroke-miterlimit="10" width="50" height="50"/>
<rect x="549.399" y="98.273" display="none" fill="none" stroke="#FF00FF" stroke-miterlimit="10" width="50" height="50"/>
<rect x="449.399" y="148.273" display="none" fill="none" stroke="#FF00FF" stroke-miterlimit="10" width="50" height="50"/>
<rect x="499.399" y="148.273" display="none" fill="none" stroke="#FF00FF" stroke-miterlimit="10" width="50" height="50"/>
<rect x="549.399" y="148.273" display="none" fill="none" stroke="#FF00FF" stroke-miterlimit="10" width="50" height="50"/>
<rect x="449.399" y="198.273" display="none" fill="none" stroke="#FF00FF" stroke-miterlimit="10" width="50" height="50"/>
<rect x="499.399" y="198.273" display="none" fill="none" stroke="#FF00FF" stroke-miterlimit="10" width="50" height="50"/>
<rect x="549.399" y="198.273" display="none" fill="none" stroke="#FF00FF" stroke-miterlimit="10" width="50" height="50"/>
<path opacity="0.25" d="M469.399,98.273c-11.044,0-20,8.953-20,20s8.956,20,20,20c11.043,0,20-8.953,20-20
	S480.442,98.273,469.399,98.273z M475.859,121.929h-3.379v12.23h-5.058v-12.23h-2.527v-4.213h2.527v-2.531
	c0-3.438,1.428-5.482,5.482-5.482h3.379v4.215h-2.112c-1.579,0-1.683,0.59-1.683,1.689l-0.009,2.109h3.827L475.859,121.929z"/>
<path opacity="0.25" d="M519.399,98.273c-11.044,0-20,8.953-20,20s8.956,20,20,20c11.043,0,20-8.953,20-20
	S530.442,98.273,519.399,98.273z M529.547,118.764c-2.172,8.82-16.769,12.564-23.481,3.405c2.571,2.456,7.052,2.673,9.888-0.266
	c-1.664,0.246-2.878-1.391-0.827-2.273c-1.841,0.202-2.865-0.779-3.285-1.611c0.43-0.452,0.908-0.662,1.828-0.723
	c-2.014-0.477-2.756-1.461-2.985-2.659c0.559-0.133,1.258-0.249,1.64-0.197c-1.764-0.923-2.377-2.311-2.281-3.355
	c3.153,1.172,5.161,2.112,6.842,3.013c0.598,0.32,1.269,0.896,2.02,1.627c0.961-2.539,2.145-5.154,4.175-6.451
	c-0.034,0.294-0.192,0.568-0.399,0.791c0.578-0.523,1.324-0.884,2.082-0.988c-0.086,0.573-0.906,0.895-1.405,1.081
	c0.379-0.118,2.374-1.008,2.593-0.5c0.259,0.577-1.381,0.844-1.654,0.943c-0.211,0.07-0.418,0.147-0.621,0.23
	c2.53-0.254,4.947,1.836,5.652,4.43c0.05,0.189,0.101,0.395,0.147,0.613c0.923,0.344,2.603-0.018,3.142-0.352
	c-0.391,0.924-1.404,1.607-2.903,1.73c0.72,0.301,2.078,0.467,3.021,0.306C532.138,118.197,531.18,118.777,529.547,118.764z"/>
<path opacity="0.25" d="M569.399,98.273c-11.045,0-20,8.953-20,20s8.955,20,20,20c11.043,0,20-8.953,20-20
	S580.442,98.273,569.399,98.273z M575.715,122.266c-1.211,1.741-2.928,3.752-5.358,6.281l-1.226,1.275l-1.416-1.061
	c-8.83-6.613-8.292-17.53-8.265-17.992l1.997,0.118l1.997,0.112c-0.005,0.085-0.355,8.041,5.312,13.416
	c1.38-1.491,2.432-2.733,3.233-3.81c-2.381-1.894-3.777-5.082-3.467-8.122c0.325-3.184,2.943-4.718,5.353-4.602
	c2.711,0.138,4.68,2.178,4.68,4.85c0,2.083-0.12,3.793-0.75,5.601c1.396-0.194,2.758-0.92,3.833-1.659l2.266,3.297
	C580.547,122.278,577.766,122.611,575.715,122.266z"/>
<path opacity="0.25" d="M573.672,111.877c-0.023-0.001-0.049-0.002-0.076-0.002c-0.349,0-1.003,0.122-1.094,1.015
	c-0.13,1.276,0.369,2.994,1.52,4.175c0.534-1.479,0.534-2.738,0.534-4.333C574.555,112.194,574.258,111.907,573.672,111.877z"/>
<path opacity="0.25" d="M469.399,148.273c-11.044,0-20,8.953-20,20s8.956,20,20,20c11.043,0,20-8.953,20-20
	S480.442,148.273,469.399,148.273z M475.859,171.929h-3.379v12.23h-5.058v-12.23h-2.527v-4.213h2.527v-2.531
	c0-3.438,1.428-5.482,5.482-5.482h3.379v4.215h-2.112c-1.579,0-1.683,0.59-1.683,1.689l-0.009,2.109h3.827L475.859,171.929z"/>
<path opacity="0.25" d="M469.399,148.273c-11.044,0-20,8.953-20,20s8.956,20,20,20c11.043,0,20-8.953,20-20
	S480.442,148.273,469.399,148.273z M475.859,171.929h-3.379v12.23h-5.058v-12.23h-2.527v-4.213h2.527v-2.531
	c0-3.438,1.428-5.482,5.482-5.482h3.379v4.215h-2.112c-1.579,0-1.683,0.59-1.683,1.689l-0.009,2.109h3.827L475.859,171.929z"/>
<path opacity="0.25" d="M519.399,148.273c-11.044,0-20,8.953-20,20s8.956,20,20,20c11.043,0,20-8.953,20-20
	S530.442,148.273,519.399,148.273z M529.547,168.764c-2.172,8.82-16.769,12.564-23.481,3.405c2.571,2.456,7.052,2.673,9.888-0.266
	c-1.664,0.246-2.878-1.391-0.827-2.273c-1.841,0.202-2.865-0.779-3.285-1.611c0.43-0.452,0.908-0.662,1.828-0.723
	c-2.014-0.477-2.756-1.461-2.985-2.659c0.559-0.133,1.258-0.249,1.64-0.197c-1.764-0.923-2.377-2.311-2.281-3.355
	c3.153,1.172,5.161,2.112,6.842,3.013c0.598,0.32,1.269,0.896,2.02,1.627c0.961-2.539,2.145-5.154,4.175-6.451
	c-0.034,0.294-0.192,0.568-0.399,0.791c0.578-0.523,1.324-0.884,2.082-0.988c-0.086,0.573-0.906,0.895-1.405,1.081
	c0.379-0.118,2.374-1.008,2.593-0.5c0.259,0.577-1.381,0.844-1.654,0.943c-0.211,0.07-0.418,0.147-0.621,0.23
	c2.53-0.254,4.947,1.836,5.652,4.43c0.05,0.189,0.101,0.395,0.147,0.613c0.923,0.344,2.603-0.018,3.142-0.352
	c-0.391,0.924-1.404,1.607-2.903,1.73c0.72,0.301,2.078,0.467,3.021,0.306C532.138,168.197,531.18,168.777,529.547,168.764z"/>
<path opacity="0.25" d="M519.399,148.273c-11.044,0-20,8.953-20,20s8.956,20,20,20c11.043,0,20-8.953,20-20
	S530.442,148.273,519.399,148.273z M529.547,168.764c-2.172,8.82-16.769,12.564-23.481,3.405c2.571,2.456,7.052,2.673,9.888-0.266
	c-1.664,0.246-2.878-1.391-0.827-2.273c-1.841,0.202-2.865-0.779-3.285-1.611c0.43-0.452,0.908-0.662,1.828-0.723
	c-2.014-0.477-2.756-1.461-2.985-2.659c0.559-0.133,1.258-0.249,1.64-0.197c-1.764-0.923-2.377-2.311-2.281-3.355
	c3.153,1.172,5.161,2.112,6.842,3.013c0.598,0.32,1.269,0.896,2.02,1.627c0.961-2.539,2.145-5.154,4.175-6.451
	c-0.034,0.294-0.192,0.568-0.399,0.791c0.578-0.523,1.324-0.884,2.082-0.988c-0.086,0.573-0.906,0.895-1.405,1.081
	c0.379-0.118,2.374-1.008,2.593-0.5c0.259,0.577-1.381,0.844-1.654,0.943c-0.211,0.07-0.418,0.147-0.621,0.23
	c2.53-0.254,4.947,1.836,5.652,4.43c0.05,0.189,0.101,0.395,0.147,0.613c0.923,0.344,2.603-0.018,3.142-0.352
	c-0.391,0.924-1.404,1.607-2.903,1.73c0.72,0.301,2.078,0.467,3.021,0.306C532.138,168.197,531.18,168.777,529.547,168.764z"/>
<path opacity="0.25" d="M569.399,148.273c-11.045,0-20,8.953-20,20s8.955,20,20,20c11.043,0,20-8.953,20-20
	S580.442,148.273,569.399,148.273z M575.715,172.266c-1.211,1.741-2.928,3.752-5.358,6.281l-1.226,1.275l-1.416-1.061
	c-8.83-6.613-8.292-17.53-8.265-17.992l1.997,0.118l1.997,0.112c-0.005,0.085-0.355,8.041,5.312,13.416
	c1.38-1.491,2.432-2.733,3.233-3.81c-2.381-1.894-3.777-5.082-3.467-8.122c0.325-3.184,2.943-4.718,5.353-4.602
	c2.711,0.138,4.68,2.178,4.68,4.85c0,2.083-0.12,3.793-0.75,5.601c1.396-0.194,2.758-0.92,3.833-1.659l2.266,3.297
	C580.547,172.278,577.766,172.611,575.715,172.266z"/>
<path opacity="0.25" d="M573.672,161.877c-0.023-0.001-0.049-0.002-0.076-0.002c-0.349,0-1.003,0.122-1.094,1.015
	c-0.13,1.276,0.369,2.994,1.52,4.175c0.534-1.479,0.534-2.738,0.534-4.333C574.555,162.194,574.258,161.907,573.672,161.877z"/>
<path opacity="0.25" d="M569.399,148.273c-11.045,0-20,8.953-20,20s8.955,20,20,20c11.043,0,20-8.953,20-20
	S580.442,148.273,569.399,148.273z M575.715,172.266c-1.211,1.741-2.928,3.752-5.358,6.281l-1.226,1.275l-1.416-1.061
	c-8.83-6.613-8.292-17.53-8.265-17.992l1.997,0.118l1.997,0.112c-0.005,0.085-0.355,8.041,5.312,13.416
	c1.38-1.491,2.432-2.733,3.233-3.81c-2.381-1.894-3.777-5.082-3.467-8.122c0.325-3.184,2.943-4.718,5.353-4.602
	c2.711,0.138,4.68,2.178,4.68,4.85c0,2.083-0.12,3.793-0.75,5.601c1.396-0.194,2.758-0.92,3.833-1.659l2.266,3.297
	C580.547,172.278,577.766,172.611,575.715,172.266z"/>
<path opacity="0.25" d="M573.672,161.877c-0.023-0.001-0.049-0.002-0.076-0.002c-0.349,0-1.003,0.122-1.094,1.015
	c-0.13,1.276,0.369,2.994,1.52,4.175c0.534-1.479,0.534-2.738,0.534-4.333C574.555,162.194,574.258,161.907,573.672,161.877z"/>
<path fill="#FFFFFF" d="M469.399,198.273c-11.044,0-20,8.953-20,20s8.956,20,20,20c11.043,0,20-8.953,20-20
	S480.442,198.273,469.399,198.273z"/>
<path fill="#FFFFFF" d="M519.399,198.273c-11.044,0-20,8.953-20,20s8.956,20,20,20c11.043,0,20-8.953,20-20
	S530.442,198.273,519.399,198.273z"/>
<path fill="#FFFFFF" d="M569.399,198.273c-11.045,0-20,8.953-20,20s8.955,20,20,20c11.043,0,20-8.953,20-20
	S580.442,198.273,569.399,198.273z"/>
<g opacity="0.25">
	<polygon points="379.399,119.49 375.095,113.276 379.399,107.06 371.96,105.711 370.612,98.273 364.399,102.583 358.185,98.273 
		356.84,105.711 349.399,107.06 353.703,113.276 349.399,119.49 356.84,120.835 358.185,128.273 364.399,123.967 370.612,128.273 
		371.96,120.835 	"/>
</g>
<g opacity="0.25">
	<path d="M419.399,168.609c0,11-9,20-20,20h-80c-11,0-20-9-20-20v-0.336c0-11,9-20,20-20h80c11,0,20,9,20,20V168.609z"/>
</g>
<g opacity="0.25">
	<path d="M369.399,203.273c0,2.75-2.25,5-5,5h-60c-2.75,0-5-2.25-5-5l0,0c0-2.75,2.25-5,5-5h60
		C367.149,198.273,369.399,200.523,369.399,203.273L369.399,203.273z"/>
</g>
<path opacity="0.25" d="M299.399,98.273v30h30v-30H299.399z M306.399,123.273c0-4.342,2.355-8.371,5.601-9.606
	c-1.821-0.892-3.085-2.745-3.085-4.909c0-3.029,2.455-5.484,5.484-5.484s5.484,2.455,5.484,5.484c0,2.164-1.264,4.017-3.085,4.909
	c3.246,1.235,5.601,5.264,5.601,9.606H306.399z"/>
<path opacity="0.25" d="M415.625,105.93l-2.88,5.4l2.688,2.736l-2.713,2.665l-2.16-2.232c-0.456,0.792-1.896,2.232-4.776,2.232
	c-3.96,0-6.385-2.28-6.385-5.161c0-2.64,2.017-4.008,3.289-4.873c-1.249-1.272-1.681-2.568-1.681-3.84
	c0-2.592,2.185-4.584,4.921-4.584c2.735,0,4.656,1.968,4.656,4.369c0,2.328-1.681,3.528-2.448,4.08l1.968,1.992l1.32-2.784H415.625z
	 M405.135,109.098c-0.575,0.456-1.367,1.08-1.367,2.064c0,1.128,0.96,1.752,2.136,1.752c1.152,0,1.729-0.528,2.04-0.984
	L405.135,109.098z M405.928,101.489c-0.505,0-1.057,0.384-1.057,1.176c0,0.84,0.601,1.488,1.008,1.92
	c0.528-0.528,1.104-1.104,1.104-1.968c0-0.624-0.36-1.128-1.032-1.128H405.928z"/>
<path fill="#00549E" d="M475.859,221.929h-3.379v12.23h-5.058v-12.23h-2.527v-4.213h2.527v-2.531c0-3.438,1.428-5.482,5.482-5.482
	h3.379v4.215h-2.112c-1.579,0-1.683,0.59-1.683,1.689l-0.009,2.109h3.827L475.859,221.929z"/>
<path fill="#1EB1E7" d="M529.547,218.764c-2.172,8.82-16.769,12.564-23.481,3.405c2.571,2.456,7.052,2.673,9.888-0.266
	c-1.664,0.246-2.878-1.391-0.827-2.273c-1.841,0.202-2.865-0.779-3.285-1.611c0.43-0.452,0.908-0.662,1.828-0.723
	c-2.014-0.477-2.756-1.461-2.985-2.659c0.559-0.133,1.258-0.249,1.64-0.197c-1.764-0.923-2.377-2.311-2.281-3.355
	c3.153,1.172,5.161,2.112,6.842,3.013c0.598,0.32,1.269,0.896,2.02,1.627c0.961-2.539,2.145-5.154,4.175-6.451
	c-0.034,0.294-0.192,0.568-0.399,0.791c0.578-0.523,1.324-0.884,2.082-0.988c-0.086,0.573-0.906,0.895-1.405,1.081
	c0.379-0.118,2.374-1.008,2.593-0.5c0.259,0.577-1.381,0.844-1.654,0.943c-0.211,0.07-0.418,0.147-0.621,0.23
	c2.53-0.254,4.947,1.836,5.652,4.43c0.05,0.189,0.101,0.395,0.147,0.613c0.923,0.344,2.603-0.018,3.142-0.352
	c-0.391,0.924-1.404,1.607-2.903,1.73c0.72,0.301,2.078,0.467,3.021,0.306C532.138,218.197,531.18,218.777,529.547,218.764z"/>
<path fill="#36B785" d="M581.639,216.673c-1.076,0.739-2.438,1.465-3.833,1.659c0.629-1.807,0.75-3.518,0.75-5.601
	c0-2.672-1.968-4.711-4.68-4.85c-2.41-0.116-5.028,1.418-5.353,4.602c-0.311,3.041,1.086,6.228,3.467,8.122
	c-0.801,1.076-1.853,2.319-3.233,3.81c-5.667-5.375-5.316-13.33-5.312-13.416l-1.997-0.112l-1.997-0.118
	c-0.027,0.461-0.565,11.379,8.265,17.992l1.416,1.061l1.226-1.275c2.43-2.529,4.147-4.54,5.358-6.281
	c2.051,0.345,4.832,0.012,8.19-2.296L581.639,216.673z M574.021,217.065c-1.15-1.181-1.65-2.899-1.52-4.175
	c0.091-0.894,0.745-1.015,1.094-1.015c0.027,0,0.053,0,0.076,0.002c0.586,0.03,0.883,0.317,0.883,0.854
	C574.555,214.327,574.555,215.586,574.021,217.065z"/>
</svg>
